<svg enable-background="new 0 0 153.07 36.85" viewBox="0 0 153.07 36.85" xmlns="http://www.w3.org/2000/svg"><path d="m30.67 14.55-.66-.22h-.01-.03c-.03.01-.07.01-.1.01l-2.09 9.57c-.06.3-.3.52-.6.57h-.01l-.04.01c-.21.03-.41.06-.62.09-.41.05-.98.12-1.62.18-1.26.11-2.88.16-4.08-.1-1.22-.27-2.15-.89-2.95-1.44l-.04-.02c-.84-.57-1.55-1.04-2.48-1.24-1.01-.22-2.44-.18-3.67-.08-.55.05-1.1.11-1.65.19l-2.51 11.44c.34.23.68.45 1.04.66l2.17-9.95c.55-.08 1.1-.14 1.65-.19 1.23-.11 2.66-.14 3.67.08.93.2 1.64.68 2.48 1.24l.04.02c.8.55 1.73 1.17 2.95 1.44 1.2.26 2.82.21 4.08.1.64-.05 1.21-.12 1.62-.18.21-.03.41-.06.62-.09l.04-.01h.01c.3-.05.54-.28.6-.57l2.37-10.84c.06-.24-.01-.49-.18-.67z" fill="#149e83"/><path d="m17.64.24c-10.04 0-18.18 8.14-18.18 18.19 0 5.71 2.63 10.8 6.75 14.13l5.14-23.57c.09-.4.48-.65.88-.57.4.09.65.48.57.88l-.09.41c.35-.04.77-.09 1.22-.13 1.26-.1 2.88-.16 4.08.1 1.21.26 2.12.88 2.9 1.42l.06.04c.82.56 1.54 1.04 2.51 1.25 1.01.22 2.44.18 3.67.08.7-.06 1.4-.15 2.1-.26h.03.01l.66.22c.17.18.24.43.19.67l-.28 1.27c.03-.01.07-.01.1-.01h.03.01l.66.22c.17.18.24.43.19.67l-2.37 10.84c-.06.3-.3.52-.6.57h-.01l-.04.01c-.21.03-.41.06-.62.09-.41.05-.98.12-1.62.18-1.26.11-2.88.16-4.08-.1-1.22-.27-2.15-.89-2.95-1.44l-.04-.02c-.84-.57-1.55-1.04-2.48-1.24-1.01-.22-2.44-.18-3.67-.08-.55.05-1.1.11-1.65.19l-2.17 9.95c-.36-.21-.7-.43-1.04-.66l2.49-11.43-2.5 11.44c2.89 1.95 6.38 3.08 10.13 3.08 10.04 0 18.18-8.14 18.18-18.18.01-10.07-8.13-18.21-18.17-18.21z" fill="#18bc9c"/><path d="m43.04 17.63v-10.62h3.05c.6 0 1.13.06 1.57.18s.81.3 1.1.53.51.52.65.85c.14.34.21.72.21 1.14 0 .28-.05.55-.15.81s-.24.5-.42.72-.41.41-.68.57-.57.29-.92.37c.83.12 1.48.4 1.93.83s.68 1 .68 1.7c0 .45-.08.85-.24 1.21s-.39.67-.7.92-.68.44-1.12.57c-.45.13-.95.2-1.52.2h-3.44zm.76-5.65h2.3c.49 0 .91-.06 1.26-.19.35-.12.63-.29.85-.5s.39-.44.49-.7c.11-.26.16-.53.16-.8 0-.71-.23-1.26-.68-1.62-.45-.37-1.15-.55-2.1-.55h-2.28zm0 .56v4.47h2.66c.93 0 1.64-.2 2.12-.6.47-.4.71-.97.71-1.7 0-.33-.06-.64-.19-.9-.13-.27-.31-.5-.55-.68s-.54-.33-.88-.43c-.35-.1-.75-.15-1.19-.15h-2.68z" fill="#808080"/><path d="m56.88 17.63c-.15 0-.24-.07-.28-.21l-.1-.95c-.21.2-.41.38-.61.54s-.41.29-.63.41c-.22.11-.46.19-.71.25s-.54.09-.84.09c-.25 0-.5-.04-.74-.11s-.45-.19-.64-.34-.33-.35-.45-.6c-.11-.24-.17-.53-.17-.87 0-.31.09-.61.27-.88s.46-.5.84-.71c.38-.2.88-.36 1.48-.48s1.33-.19 2.17-.21v-.78c0-.69-.15-1.22-.45-1.59s-.74-.56-1.32-.56c-.36 0-.67.05-.92.15s-.47.21-.64.33-.32.23-.43.33-.2.15-.28.15c-.1 0-.17-.04-.22-.13l-.13-.22c.39-.39.8-.69 1.23-.89s.92-.3 1.46-.3c.4 0 .75.06 1.05.19s.55.31.75.55.35.52.45.86.15.71.15 1.13v4.86h-.29zm-3-.4c.29 0 .56-.03.8-.09s.47-.15.67-.26c.21-.11.4-.25.58-.4.18-.16.36-.32.53-.5v-1.94c-.71.02-1.32.07-1.83.16s-.93.21-1.27.36c-.33.15-.58.33-.74.54s-.24.44-.24.71c0 .25.04.47.12.65s.19.33.33.45.29.2.47.26c.2.03.38.06.58.06z" fill="#808080"/><path d="m59.24 17.63v-7.46h.39c.13 0 .21.06.23.19l.07 1.12c.34-.43.74-.78 1.19-1.04s.96-.39 1.51-.39c.41 0 .77.06 1.08.19s.57.32.78.56c.21.25.36.54.46.89.11.34.16.73.16 1.17v4.77h-.71v-4.77c0-.7-.16-1.25-.48-1.65s-.81-.6-1.47-.6c-.49 0-.94.13-1.36.38s-.8.6-1.12 1.04v5.6z" fill="#808080"/><path d="m72.59 17.63c-.12 0-.2-.06-.21-.19l-.08-1.18c-.33.45-.72.81-1.16 1.07s-.94.4-1.49.4c-.92 0-1.63-.32-2.14-.95s-.77-1.59-.77-2.86c0-.54.07-1.05.21-1.53.14-.47.35-.88.63-1.23s.62-.62 1.02-.82.87-.3 1.39-.3c.51 0 .94.09 1.31.28s.69.46.96.82v-4.43h.71v10.91h-.38zm-2.74-.48c.5 0 .94-.13 1.34-.38.4-.26.76-.61 1.07-1.07v-3.94c-.29-.42-.61-.72-.96-.9-.35-.17-.74-.26-1.18-.26s-.83.08-1.16.24-.61.39-.83.68-.39.64-.5 1.05-.17.86-.17 1.35c0 1.11.21 1.93.62 2.45.42.52 1.01.78 1.77.78z" fill="#808080"/><path d="m76.34 7.59c0 .09-.02.17-.06.25s-.09.15-.15.21-.13.11-.21.14c-.08.04-.17.05-.25.05-.09 0-.18-.02-.26-.05s-.15-.08-.21-.14-.11-.13-.14-.21c-.04-.08-.05-.16-.05-.25s.02-.18.05-.26.08-.15.14-.21.13-.11.21-.14c.08-.04.17-.05.26-.05s.17.02.25.05.15.08.21.14.11.13.15.21c.04.09.06.17.06.26zm-.32 2.57v7.46h-.71v-7.46z" fill="#808080"/><path d="m81.19 10.04c.42 0 .81.07 1.17.22s.67.36.93.63c.26.28.47.62.62 1.02s.22.87.22 1.4c0 .11-.02.19-.05.23s-.08.06-.15.06h-5.38v.14c0 .56.06 1.05.19 1.48s.32.78.56 1.07.53.5.87.65.72.22 1.14.22c.38 0 .7-.04.97-.12.28-.08.51-.17.69-.28s.34-.2.45-.28.19-.12.24-.12c.07 0 .12.02.15.07l.2.24c-.12.15-.28.29-.48.42s-.42.24-.66.33-.5.17-.78.22-.56.08-.84.08c-.51 0-.97-.09-1.39-.27s-.78-.44-1.08-.78-.53-.76-.7-1.25c-.16-.49-.25-1.06-.25-1.69 0-.54.08-1.03.23-1.48s.37-.84.66-1.17.64-.58 1.06-.77c.41-.17.88-.27 1.41-.27zm.01.54c-.38 0-.73.06-1.03.18s-.57.29-.79.52-.4.5-.54.81-.23.67-.27 1.06h4.91c0-.4-.05-.76-.17-1.08-.11-.32-.26-.59-.46-.81s-.44-.39-.72-.51c-.28-.11-.59-.17-.93-.17z" fill="#808080"/><path d="m85.81 17.63v-7.46h.38c.08 0 .15.02.18.05.04.04.06.1.06.18l.06 1.58c.24-.6.56-1.08.96-1.42s.89-.51 1.48-.51c.22 0 .43.02.62.07s.37.12.54.21l-.1.5c-.01.08-.06.12-.15.12-.03 0-.07-.01-.13-.03s-.12-.04-.21-.07-.18-.05-.3-.07-.26-.03-.41-.03c-.57 0-1.03.18-1.39.52-.36.35-.66.85-.88 1.52v4.85h-.71z" fill="#808080"/><path d="m96.27 17.63c-.15 0-.24-.07-.28-.21l-.11-.95c-.21.2-.41.38-.61.54s-.41.29-.63.41c-.22.11-.46.19-.71.25-.26.06-.54.09-.84.09-.25 0-.5-.04-.74-.11s-.45-.19-.64-.34c-.18-.15-.33-.35-.45-.6-.11-.24-.17-.53-.17-.87 0-.31.09-.61.27-.88s.46-.5.84-.71c.38-.2.88-.36 1.48-.48s1.33-.19 2.17-.21v-.78c0-.69-.15-1.22-.45-1.59s-.74-.56-1.32-.56c-.36 0-.67.05-.92.15s-.47.21-.64.33-.32.23-.43.33-.2.15-.28.15c-.1 0-.17-.04-.22-.13l-.13-.22c.39-.39.8-.69 1.23-.89s.92-.3 1.46-.3c.4 0 .75.06 1.05.19s.55.31.75.55.35.52.45.86.15.71.15 1.13v4.86h-.28zm-3-.4c.29 0 .56-.03.8-.09s.47-.15.67-.26c.21-.11.4-.25.58-.4.18-.16.36-.32.53-.5v-1.94c-.71.02-1.32.07-1.83.16s-.94.21-1.27.36-.58.33-.74.54-.24.44-.24.71c0 .25.04.47.12.65s.19.33.33.45c.13.12.29.2.47.26.2.03.39.06.58.06z" fill="#808080"/><g fill="#149e83"><path d="m45.72 24.57c-.03.06-.07.08-.13.08-.04 0-.1-.02-.17-.07s-.16-.11-.28-.17c-.11-.06-.25-.12-.42-.17s-.37-.07-.61-.07c-.22 0-.41.03-.59.09s-.33.14-.46.25c-.13.1-.22.22-.29.36s-.11.28-.11.43c0 .19.05.34.14.47.1.12.22.23.38.32s.33.16.53.23c.2.06.4.13.61.19s.41.14.61.21c.2.08.38.18.53.29.16.12.28.26.38.43s.14.37.14.61c0 .26-.05.5-.14.73-.09.22-.23.42-.41.58s-.4.29-.66.39-.56.14-.89.14c-.42 0-.78-.07-1.09-.2-.3-.13-.58-.31-.82-.52l.14-.2c.02-.03.04-.06.07-.07.02-.02.06-.02.1-.02.05 0 .12.03.19.1s.17.13.3.21.27.14.46.21.41.1.67.1c.25 0 .47-.03.67-.1.19-.07.35-.17.48-.28.13-.12.22-.26.29-.42s.1-.33.1-.51c0-.2-.05-.37-.14-.5-.1-.13-.22-.24-.38-.34-.16-.09-.33-.17-.53-.23s-.4-.13-.61-.19-.41-.13-.61-.21-.38-.17-.53-.29c-.16-.12-.28-.26-.38-.42-.1-.17-.14-.37-.14-.62 0-.21.05-.42.14-.61.09-.2.22-.37.39-.52s.38-.27.62-.35.52-.13.82-.13c.36 0 .69.05.97.16s.54.27.78.48z"/><path d="m48.23 21.77c0 .07-.01.14-.04.2s-.07.12-.12.17-.1.09-.17.11c-.06.03-.13.04-.2.04s-.14-.01-.2-.04-.12-.07-.17-.11c-.05-.05-.09-.1-.11-.17-.03-.06-.04-.13-.04-.2s.01-.14.04-.21.07-.12.11-.17c.05-.05.1-.09.17-.11.06-.03.13-.04.2-.04s.14.01.2.04.12.07.17.11c.05.05.09.1.12.17s.04.14.04.21zm-.25 2.06v5.97h-.57v-5.97z"/><path d="m49.84 29.8v-5.97h.31c.1 0 .16.05.18.15l.05.86c.12-.16.24-.31.37-.45s.27-.25.42-.35.31-.17.48-.23c.17-.05.35-.08.54-.08.44 0 .78.13 1.04.38s.44.61.53 1.06c.07-.25.17-.46.3-.64s.28-.33.45-.45.35-.21.55-.26c.2-.06.4-.09.61-.09.29 0 .56.05.8.15s.44.24.6.44.29.43.38.71.13.6.13.96v3.82h-.57v-3.82c0-.58-.13-1.03-.38-1.33-.25-.31-.61-.46-1.08-.46-.21 0-.41.04-.6.11-.19.08-.36.19-.5.34-.15.15-.26.34-.35.56s-.13.48-.13.78v3.82h-.57v-3.82c0-.58-.12-1.02-.35-1.33s-.57-.46-1.01-.46c-.32 0-.62.1-.9.29s-.52.46-.74.81v4.51h-.56z"/><path d="m59.26 31.91v-8.08h.31c.05 0 .09.01.13.03.03.02.05.06.05.12l.05.92c.26-.36.57-.65.93-.86.35-.21.75-.32 1.19-.32.74 0 1.31.25 1.72.76s.61 1.27.61 2.29c0 .44-.06.84-.17 1.22s-.28.71-.5.98c-.22.28-.49.5-.81.66s-.69.24-1.11.24c-.41 0-.76-.07-1.06-.22s-.55-.37-.77-.66v2.92zm2.5-7.72c-.4 0-.75.1-1.08.31-.32.21-.61.49-.85.86v3.13c.23.34.48.59.76.73s.59.21.95.21c.35 0 .66-.06.92-.19s.49-.31.66-.54.31-.51.4-.84.13-.69.13-1.08c0-.89-.16-1.54-.49-1.96s-.78-.63-1.4-.63z"/><path d="m66.3 21.07v8.73h-.57v-8.73z"/><path d="m70.5 23.73c.34 0 .65.06.93.17.29.12.53.29.74.51s.37.49.49.82c.12.32.18.7.18 1.12 0 .09-.01.15-.04.18s-.07.05-.12.05h-4.31v.11c0 .45.05.84.16 1.18.1.34.25.62.44.85s.42.4.7.52c.27.12.58.17.91.17.3 0 .56-.03.78-.1s.41-.14.56-.22.27-.16.36-.22.15-.1.19-.1c.05 0 .09.02.12.06l.16.19c-.1.12-.22.23-.38.34s-.33.19-.53.27c-.19.07-.4.13-.62.18-.22.04-.45.07-.67.07-.41 0-.78-.07-1.12-.21s-.62-.35-.87-.62-.43-.6-.56-1c-.13-.39-.2-.85-.2-1.35 0-.43.06-.82.18-1.19s.3-.67.53-.94c.23-.26.51-.47.85-.62.33-.14.71-.22 1.14-.22zm.01.43c-.31 0-.58.05-.83.14-.24.1-.45.23-.63.41s-.32.4-.43.65-.18.53-.22.85h3.93c0-.32-.04-.61-.13-.86s-.21-.47-.37-.65-.35-.31-.58-.4-.47-.14-.74-.14z"/><path d="m76.92 29.8v-5.35l-.84-.05c-.12-.01-.17-.06-.17-.15v-.23h1.01v-.76c0-.34.04-.64.13-.9s.21-.47.37-.65c.16-.17.35-.3.58-.39s.48-.13.75-.13c.12 0 .25.01.38.03s.24.05.33.09l-.02.28c0 .06-.04.08-.11.08-.05 0-.11-.01-.2-.02-.08-.01-.18-.02-.3-.02-.2 0-.38.03-.54.09s-.31.15-.43.28-.21.3-.28.5c-.07.21-.1.46-.1.76v.74h1.94v.43h-1.93v5.36h-.57z"/><path d="m82.66 23.73c.34 0 .65.06.93.17.29.12.53.29.74.51s.37.49.49.82c.12.32.18.7.18 1.12 0 .09-.01.15-.04.18s-.07.05-.12.05h-4.31v.11c0 .45.05.84.16 1.18.1.34.25.62.44.85s.42.4.7.52c.27.12.58.17.91.17.3 0 .56-.03.78-.1s.41-.14.56-.22.27-.16.36-.22.15-.1.19-.1c.05 0 .09.02.12.06l.16.19c-.1.12-.22.23-.38.34s-.33.19-.53.27c-.19.07-.4.13-.62.18-.22.04-.45.07-.67.07-.41 0-.78-.07-1.12-.21s-.62-.35-.87-.62-.43-.6-.56-1c-.13-.39-.2-.85-.2-1.35 0-.43.06-.82.18-1.19s.3-.67.53-.94c.23-.26.51-.47.85-.62.34-.14.71-.22 1.14-.22zm.01.43c-.31 0-.58.05-.83.14-.24.1-.45.23-.63.41s-.32.4-.43.65-.18.53-.22.85h3.93c0-.32-.04-.61-.13-.86s-.21-.47-.37-.65-.35-.31-.58-.4c-.22-.09-.47-.14-.74-.14z"/><path d="m90.2 29.8c-.12 0-.19-.06-.22-.17l-.08-.76c-.16.16-.33.3-.49.43s-.33.24-.51.32-.37.15-.57.2-.43.07-.67.07c-.2 0-.4-.03-.59-.09s-.36-.15-.51-.28c-.15-.12-.27-.28-.36-.48-.09-.19-.13-.43-.13-.7 0-.25.07-.49.22-.7.14-.22.37-.4.68-.56s.7-.29 1.18-.38c.48-.1 1.06-.15 1.74-.17v-.62c0-.55-.12-.98-.36-1.27-.24-.3-.59-.45-1.06-.45-.29 0-.53.04-.74.12-.2.08-.37.17-.51.26-.14.1-.25.18-.34.26s-.16.12-.22.12c-.08 0-.14-.04-.18-.11l-.1-.17c.31-.31.64-.55.98-.71s.73-.24 1.17-.24c.32 0 .6.05.84.15s.44.25.6.44.28.42.36.69.12.57.12.9v3.89h-.25zm-2.4-.32c.23 0 .45-.02.64-.08.19-.05.37-.12.54-.21s.32-.2.46-.32.29-.26.43-.4v-1.55c-.57.02-1.06.06-1.47.13s-.75.17-1.01.29c-.27.12-.46.26-.59.43s-.19.35-.19.57c0 .2.03.37.1.52s.15.27.26.36.23.16.38.21c.14.03.29.05.45.05z"/><path d="m93.66 29.89c-.4 0-.72-.11-.94-.34-.22-.22-.34-.57-.34-1.04v-4.08h-.86c-.04 0-.08-.01-.11-.04-.03-.02-.04-.06-.04-.1v-.22l1.02-.07.14-2.14c0-.04.02-.07.04-.1s.06-.04.1-.04h.27v2.28h1.88v.43h-1.88v4.05c0 .16.02.31.06.42.04.12.1.21.17.29s.16.13.26.17.21.05.32.05c.14 0 .27-.02.37-.06s.19-.09.27-.14.14-.1.19-.14.09-.06.11-.06c.03 0 .06.02.1.06l.16.25c-.15.17-.34.3-.58.4-.21.12-.46.17-.71.17z"/><path d="m96.59 23.83v3.82c0 .56.13 1 .39 1.32s.65.48 1.17.48c.39 0 .75-.1 1.09-.3s.64-.47.91-.82v-4.49h.57v5.97h-.31c-.11 0-.17-.05-.17-.16l-.05-.89c-.28.34-.6.62-.96.83s-.77.31-1.21.31c-.33 0-.62-.05-.87-.16-.25-.1-.46-.25-.62-.45s-.29-.43-.37-.71-.13-.59-.13-.94v-3.82h.56z"/><path d="m102.48 29.8v-5.97h.3c.07 0 .12.01.15.04s.05.08.05.14l.05 1.26c.19-.48.45-.86.77-1.14s.71-.41 1.18-.41c.18 0 .35.02.5.06s.3.09.43.17l-.08.4c-.01.06-.05.1-.12.1-.02 0-.06-.01-.1-.02-.04-.02-.1-.03-.17-.05s-.15-.04-.24-.05c-.1-.02-.21-.02-.33-.02-.45 0-.82.14-1.11.42s-.53.68-.71 1.21v3.88h-.57z"/><path d="m109.2 23.73c.34 0 .65.06.93.17.29.12.53.29.74.51s.37.49.49.82c.12.32.18.7.18 1.12 0 .09-.01.15-.04.18s-.07.05-.12.05h-4.31v.11c0 .45.05.84.16 1.18.1.34.25.62.44.85s.42.4.7.52c.27.12.58.17.91.17.3 0 .56-.03.78-.1s.41-.14.55-.22c.15-.08.27-.16.36-.22s.15-.1.19-.1c.05 0 .09.02.12.06l.16.19c-.1.12-.22.23-.38.34s-.33.19-.53.27c-.19.07-.4.13-.62.18-.22.04-.44.07-.67.07-.41 0-.78-.07-1.12-.21s-.62-.35-.87-.62c-.24-.27-.43-.6-.56-1-.13-.39-.2-.85-.2-1.35 0-.43.06-.82.18-1.19s.3-.67.53-.94c.23-.26.51-.47.85-.62.35-.14.73-.22 1.15-.22zm.01.43c-.31 0-.58.05-.83.14-.24.1-.45.23-.63.41s-.32.4-.43.65-.18.53-.22.85h3.93c0-.32-.04-.61-.13-.86s-.21-.47-.37-.65-.35-.31-.58-.4c-.22-.09-.47-.14-.74-.14z"/><path d="m115.62 29.8v-5.35l-.84-.05c-.12-.01-.17-.06-.17-.15v-.23h1.01v-.39c0-.35.05-.68.16-.98.1-.3.26-.56.46-.78s.45-.39.75-.52.64-.19 1.02-.19c.14 0 .28 0 .42.01.15.01.29.02.43.03s.27.02.39.03.22.01.31.01h.43v8.56h-.57v-8.15c-.22-.01-.44-.02-.68-.04s-.45-.02-.64-.02c-.3 0-.57.05-.8.14-.24.09-.43.23-.6.41-.16.18-.29.39-.37.65s-.13.53-.13.85v.39h1.73v.43h-1.72v5.36h-.59z"/><path d="m125.69 29.8c-.12 0-.19-.06-.22-.17l-.08-.76c-.16.16-.33.3-.49.43s-.33.24-.51.32c-.18.09-.37.15-.57.2s-.43.07-.67.07c-.2 0-.4-.03-.59-.09s-.36-.15-.51-.28c-.15-.12-.27-.28-.36-.48-.09-.19-.14-.43-.14-.7 0-.25.07-.49.22-.7.14-.22.37-.4.67-.56.31-.16.7-.29 1.18-.38.48-.1 1.06-.15 1.74-.17v-.62c0-.55-.12-.98-.36-1.27-.24-.3-.59-.45-1.06-.45-.29 0-.53.04-.74.12-.2.08-.37.17-.51.26-.14.1-.25.18-.34.26s-.16.12-.22.12c-.08 0-.14-.04-.18-.11l-.1-.17c.31-.31.64-.55.98-.71s.73-.24 1.17-.24c.32 0 .6.05.84.15s.44.25.6.44.28.42.36.69.12.57.12.9v3.89h-.23zm-2.4-.32c.23 0 .45-.02.64-.08.19-.05.37-.12.54-.21s.32-.2.47-.32c.14-.12.29-.26.43-.4v-1.55c-.57.02-1.06.06-1.47.13s-.75.17-1.01.29c-.27.12-.46.26-.59.43s-.19.35-.19.57c0 .2.03.37.1.52s.15.27.26.36.23.16.38.21c.14.03.29.05.44.05z"/><path d="m129.52 23.73c.26 0 .5.03.72.1s.42.15.6.27h1.53v.2c0 .1-.06.15-.17.16l-.91.07c.11.15.2.32.26.51s.09.39.09.61c0 .29-.05.55-.16.78-.1.23-.25.43-.44.6s-.41.29-.67.39c-.26.09-.55.14-.86.14-.34 0-.66-.05-.94-.16-.17.1-.3.21-.4.34s-.14.26-.14.38c0 .17.06.3.18.4.12.09.28.16.48.2s.42.07.68.08c.25.01.51.02.77.04.26.01.52.04.77.07.25.04.48.1.68.19s.36.22.48.38.18.38.18.65c0 .25-.06.49-.19.71s-.3.43-.54.61c-.23.18-.52.32-.85.42s-.7.16-1.12.16-.79-.04-1.1-.13c-.32-.09-.58-.2-.79-.35s-.38-.31-.48-.51c-.11-.19-.16-.4-.16-.61 0-.32.1-.59.31-.82s.49-.4.86-.53c-.2-.07-.36-.17-.48-.29-.12-.13-.18-.31-.18-.53 0-.08.02-.17.05-.26s.08-.18.14-.27.14-.17.23-.25.2-.15.32-.22c-.28-.16-.5-.38-.66-.65s-.24-.59-.24-.95c0-.29.05-.55.15-.78s.25-.44.43-.6c.19-.17.41-.3.68-.39.28-.12.57-.16.89-.16zm2.22 6.47c0-.19-.05-.34-.15-.45s-.23-.2-.39-.27-.35-.11-.57-.14c-.21-.03-.44-.04-.67-.06-.23-.01-.47-.02-.71-.04-.24-.01-.46-.04-.66-.07-.15.06-.29.13-.42.21s-.24.17-.33.26-.16.21-.22.32c-.05.12-.08.25-.08.39 0 .18.04.34.13.49s.22.28.4.39c.17.11.39.2.64.26s.54.1.87.1c.3 0 .59-.03.85-.1s.49-.16.68-.29c.19-.12.35-.27.46-.44s.17-.36.17-.56zm-2.22-3.04c.26 0 .48-.04.68-.11s.37-.18.5-.31.24-.29.31-.47.11-.39.11-.61-.04-.43-.11-.62-.18-.34-.31-.48c-.14-.13-.31-.23-.5-.31-.2-.07-.42-.11-.67-.11s-.48.04-.68.11-.37.17-.51.31c-.14.13-.24.29-.31.48s-.11.39-.11.62.04.43.11.61.18.34.31.47.31.23.51.31.42.11.67.11z"/><path d="m135.7 23.73c.26 0 .5.03.72.1s.42.15.6.27h1.53v.2c0 .1-.06.15-.17.16l-.91.07c.11.15.2.32.26.51s.09.39.09.61c0 .29-.05.55-.16.78-.1.23-.25.43-.44.6s-.41.29-.67.39c-.26.09-.55.14-.86.14-.34 0-.66-.05-.94-.16-.17.1-.3.21-.4.34s-.14.26-.14.38c0 .17.06.3.18.4.12.09.28.16.48.2s.42.07.68.08c.25.01.51.02.77.04.26.01.52.04.77.07.25.04.48.1.68.19s.36.22.48.38.18.38.18.65c0 .25-.06.49-.19.71s-.3.43-.54.61c-.23.18-.52.32-.85.42s-.7.16-1.12.16-.79-.04-1.1-.13c-.32-.09-.58-.2-.79-.35s-.38-.31-.48-.51c-.11-.19-.16-.4-.16-.61 0-.32.1-.59.31-.82s.49-.4.86-.53c-.2-.07-.36-.17-.48-.29-.12-.13-.18-.31-.18-.53 0-.08.02-.17.05-.26s.08-.18.14-.27.14-.17.23-.25.2-.15.32-.22c-.28-.16-.5-.38-.66-.65s-.24-.59-.24-.95c0-.29.05-.55.15-.78s.25-.44.43-.6c.19-.17.41-.3.68-.39.27-.12.57-.16.89-.16zm2.21 6.47c0-.19-.05-.34-.15-.45s-.23-.2-.39-.27-.35-.11-.57-.14c-.21-.03-.44-.04-.67-.06-.23-.01-.47-.02-.71-.04-.24-.01-.46-.04-.66-.07-.15.06-.29.13-.42.21s-.24.17-.33.26-.16.21-.22.32c-.05.12-.08.25-.08.39 0 .18.04.34.13.49s.22.28.4.39.39.2.64.26.54.1.87.1c.3 0 .59-.03.85-.1s.49-.16.68-.29c.19-.12.35-.27.46-.44s.17-.36.17-.56zm-2.21-3.04c.26 0 .48-.04.68-.11s.37-.18.5-.31.24-.29.31-.47.11-.39.11-.61-.04-.43-.11-.62-.18-.34-.31-.48c-.14-.13-.31-.23-.5-.31-.2-.07-.42-.11-.67-.11s-.48.04-.68.11-.37.17-.51.31c-.14.13-.24.29-.31.48s-.11.39-.11.62.04.43.11.61.18.34.31.47.31.23.51.31.41.11.67.11z"/><path d="m140.59 21.77c0 .07-.01.14-.04.2s-.07.12-.12.17-.1.09-.17.11c-.06.03-.13.04-.2.04s-.14-.01-.2-.04-.12-.07-.17-.11c-.05-.05-.09-.1-.11-.17-.03-.06-.04-.13-.04-.2s.01-.14.04-.21.07-.12.11-.17c.05-.05.1-.09.17-.11.06-.03.13-.04.2-.04s.14.01.2.04.12.07.17.11c.05.05.09.1.12.17s.04.14.04.21zm-.25 2.06v5.97h-.57v-5.97z"/><path d="m142.2 29.8v-5.97h.31c.1 0 .16.05.18.15l.05.9c.27-.34.59-.62.95-.83s.77-.31 1.21-.31c.33 0 .62.05.87.16s.46.25.62.45.29.43.37.71.13.59.13.94v3.82h-.57v-3.82c0-.56-.13-1-.38-1.32-.26-.32-.65-.48-1.18-.48-.39 0-.76.1-1.09.3-.34.2-.64.48-.9.83v4.48h-.57z"/><path d="m150.5 23.73c.26 0 .5.03.72.1s.42.15.6.27h1.53v.2c0 .1-.06.15-.17.16l-.91.07c.11.15.2.32.26.51s.09.39.09.61c0 .29-.05.55-.16.78-.1.23-.25.43-.44.6s-.41.29-.67.39c-.26.09-.55.14-.86.14-.34 0-.66-.05-.94-.16-.17.1-.3.21-.4.34s-.14.26-.14.38c0 .17.06.3.18.4.12.09.28.16.48.2s.42.07.68.08c.25.01.51.02.77.04.26.01.52.04.77.07.25.04.48.1.68.19s.36.22.48.38.18.38.18.65c0 .25-.06.49-.19.71s-.3.43-.54.61c-.23.18-.52.32-.85.42s-.7.16-1.12.16-.79-.04-1.1-.13c-.32-.09-.58-.2-.79-.35s-.38-.31-.48-.51c-.11-.19-.16-.4-.16-.61 0-.32.1-.59.31-.82s.49-.4.86-.53c-.2-.07-.36-.17-.48-.29-.12-.13-.18-.31-.18-.53 0-.08.02-.17.05-.26s.08-.18.14-.27.14-.17.23-.25.2-.15.32-.22c-.28-.16-.5-.38-.66-.65s-.24-.59-.24-.95c0-.29.05-.55.15-.78s.25-.44.43-.6c.19-.17.41-.3.68-.39.27-.12.57-.16.89-.16zm2.21 6.47c0-.19-.05-.34-.15-.45s-.23-.2-.39-.27-.35-.11-.57-.14c-.21-.03-.44-.04-.67-.06-.23-.01-.47-.02-.71-.04-.24-.01-.46-.04-.66-.07-.15.06-.29.13-.42.21s-.24.17-.33.26-.16.21-.22.32c-.05.12-.08.25-.08.39 0 .18.04.34.13.49s.22.28.4.39.39.2.64.26.54.1.87.1c.3 0 .59-.03.85-.1s.49-.16.68-.29c.19-.12.35-.27.46-.44.12-.17.17-.36.17-.56zm-2.21-3.04c.26 0 .48-.04.68-.11s.37-.18.5-.31.24-.29.31-.47.11-.39.11-.61-.04-.43-.11-.62-.18-.34-.31-.48c-.14-.13-.31-.23-.5-.31-.2-.07-.42-.11-.67-.11s-.48.04-.68.11-.37.17-.51.31c-.14.13-.24.29-.31.48s-.11.39-.11.62.04.43.11.61.18.34.31.47.31.23.51.31.42.11.67.11z"/></g></svg>