<svg enable-background="new 0 0 36.85 36.85" viewBox="0 0 36.85 36.85" xmlns="http://www.w3.org/2000/svg"><path d="m31.45 14.55-.66-.22h-.01-.03c-.03.01-.07.01-.1.01l-2.09 9.57c-.06.3-.3.52-.6.57h-.01l-.04.01c-.21.03-.41.06-.62.09-.41.05-.98.12-1.62.18-1.26.11-2.88.16-4.08-.1-1.22-.27-2.15-.89-2.95-1.44l-.04-.02c-.84-.57-1.55-1.04-2.48-1.24-1.01-.22-2.44-.18-3.67-.08-.55.05-1.1.11-1.65.19l-2.5 11.44c.34.23.68.45 1.03.66l2.17-9.95c.55-.08 1.1-.14 1.65-.19 1.23-.11 2.66-.14 3.67.08.93.2 1.64.68 2.48 1.24l.04.02c.8.55 1.73 1.17 2.95 1.44 1.2.26 2.82.21 4.08.1.64-.05 1.21-.12 1.62-.18.21-.03.41-.06.62-.09l.04-.01h.01c.3-.05.54-.28.6-.57l2.37-10.84c.06-.24-.01-.49-.18-.67z" fill="#e6e6e6"/><path d="m18.43.25c-10.05 0-18.18 8.13-18.18 18.18 0 5.71 2.63 10.8 6.75 14.13l5.14-23.57c.09-.4.48-.65.88-.57s.65.48.57.88l-.09.41c.35-.04.77-.09 1.22-.13 1.26-.1 2.88-.16 4.08.1 1.21.26 2.12.88 2.9 1.42l.06.04c.82.56 1.54 1.04 2.51 1.25 1.01.22 2.44.18 3.67.08.7-.06 1.4-.15 2.1-.26h.03.01l.66.22c.17.18.24.43.19.67l-.28 1.27c.03-.01.07-.01.1-.01h.03.01l.66.22c.17.18.24.43.19.67l-2.37 10.84c-.06.3-.3.52-.6.57h-.01l-.04.01c-.21.03-.41.06-.62.09-.41.05-.98.12-1.62.18-1.26.11-2.88.16-4.08-.1-1.22-.27-2.15-.89-2.95-1.44l-.04-.02c-.84-.57-1.55-1.04-2.48-1.24-1.01-.22-2.44-.18-3.67-.08-.55.05-1.1.11-1.65.19l-2.17 9.95c-.36-.21-.7-.43-1.03-.66l2.49-11.42-2.5 11.4c2.89 1.95 6.38 3.08 10.13 3.08 10.04 0 18.18-8.14 18.18-18.18s-8.14-18.17-18.18-18.17z" fill="#fff"/></svg>